<svg xmlns="http://www.w3.org/2000/svg" width="1920" height="1080"><path d="M11,-261L373,-236L605,-255Z" fill="#dff3be" stroke="#dff3be" stroke-width="1.51"/><path d="M-233,-280L11,-261L605,-255Z" fill="#ecf8bf" stroke="#ecf8bf" stroke-width="1.51"/><path d="M-233,-280L605,-255L789,-264Z" fill="#daf1c0" stroke="#daf1c0" stroke-width="1.51"/><path d="M362,1305L-229,1360L924,1322Z" fill="#758094" stroke="#758094" stroke-width="1.51"/><path d="M531,1291L362,1305L924,1322Z" fill="#5a7899" stroke="#5a7899" stroke-width="1.51"/><path d="M924,1322L-229,1360L1122,1335Z" fill="#577694" stroke="#577694" stroke-width="1.51"/><path d="M-233,-280L789,-264L1178,-277Z" fill="#c6e8c4" stroke="#c6e8c4" stroke-width="1.51"/><path d="M1178,-277L1553,-232L1757,-261Z" fill="#9eb2be" stroke="#9eb2be" stroke-width="1.51"/><path d="M1330,1326L1122,1335L1971,1345Z" fill="#1f4a8f" stroke="#1f4a8f" stroke-width="1.51"/><path d="M1524,1314L1330,1326L1971,1345Z" fill="#1d418b" stroke="#1d418b" stroke-width="1.51"/><path d="M1754,1279L1524,1314L1971,1345Z" fill="#1e3989" stroke="#1e3989" stroke-width="1.51"/><path d="M1931,940L2130,970L2138,761Z" fill="#214c94" stroke="#214c94" stroke-width="1.51"/><path d="M2124,1128L1971,1345L2143,1348Z" fill="#182a79" stroke="#182a79" stroke-width="1.51"/><path d="M2130,970L2124,1128L2143,1348Z" fill="#1b3181" stroke="#1b3181" stroke-width="1.51"/><path d="M2138,761L2130,970L2143,1348Z" fill="#1b3b86" stroke="#1b3b86" stroke-width="1.51"/><path d="M1917,366L1941,545L2145,517Z" fill="#4472a2" stroke="#4472a2" stroke-width="1.51"/><path d="M1935,698L2138,761L2145,517Z" fill="#2d639b" stroke="#2d639b" stroke-width="1.51"/><path d="M1941,545L1935,698L2145,517Z" fill="#366ca2" stroke="#366ca2" stroke-width="1.51"/><path d="M1757,-261L1969,-229L2152,-207Z" fill="#978faa" stroke="#978faa" stroke-width="1.51"/><path d="M2102,-58L1940,131L2159,170Z" fill="#7c8397" stroke="#7c8397" stroke-width="1.51"/><path d="M1940,131L1917,366L2159,170Z" fill="#6a7e9e" stroke="#6a7e9e" stroke-width="1.51"/><path d="M2152,-207L2102,-58L2159,170Z" fill="#81838f" stroke="#81838f" stroke-width="1.51"/><path d="M2145,517L2138,761L2165,367Z" fill="#316994" stroke="#316994" stroke-width="1.51"/><path d="M2138,761L2143,1348L2165,367Z" fill="#1e508f" stroke="#1e508f" stroke-width="1.51"/><path d="M2159,170L1917,366L2165,367Z" fill="#587797" stroke="#587797" stroke-width="1.51"/><path d="M1917,366L2145,517L2165,367Z" fill="#48729a" stroke="#48729a" stroke-width="1.51"/><path d="M1941,1086L2124,1128L2130,970Z" fill="#1e3b8b" stroke="#1e3b8b" stroke-width="1.51"/><path d="M1969,-229L2102,-58L2152,-207Z" fill="#8e8999" stroke="#8e8999" stroke-width="1.51"/><path d="M1973,-70L1940,131L2102,-58Z" fill="#87889d" stroke="#87889d" stroke-width="1.51"/><path d="M1969,-229L1973,-70L2102,-58Z" fill="#918b9c" stroke="#918b9c" stroke-width="1.51"/><path d="M1941,1086L1971,1345L2124,1128Z" fill="#20318a" stroke="#20318a" stroke-width="1.51"/><path d="M1935,698L1931,940L2138,761Z" fill="#26599f" stroke="#26599f" stroke-width="1.51"/><path d="M1931,940L1941,1086L2130,970Z" fill="#224394" stroke="#224394" stroke-width="1.51"/><path d="M203,1300L-229,1360L362,1305Z" fill="#868694" stroke="#868694" stroke-width="1.51"/><path d="M1728,713L1703,891L1931,940Z" fill="#2860a9" stroke="#2860a9" stroke-width="1.51"/><path d="M1728,713L1931,940L1935,698Z" fill="#2b62aa" stroke="#2b62aa" stroke-width="1.51"/><path d="M1726,342L1917,366L1940,131Z" fill="#6583aa" stroke="#6583aa" stroke-width="1.51"/><path d="M1706,148L1726,342L1940,131Z" fill="#728cac" stroke="#728cac" stroke-width="1.51"/><path d="M1708,1139L1754,1279L1941,1086Z" fill="#263f99" stroke="#263f99" stroke-width="1.51"/><path d="M1941,1086L1754,1279L1971,1345Z" fill="#22338f" stroke="#22338f" stroke-width="1.51"/><path d="M1722,-67L1940,131L1973,-70Z" fill="#8d8fa8" stroke="#8d8fa8" stroke-width="1.51"/><path d="M1969,-229L1757,-261L1973,-70Z" fill="#9991ad" stroke="#9991ad" stroke-width="1.51"/><path d="M1757,-261L1722,-67L1973,-70Z" fill="#9897aa" stroke="#9897aa" stroke-width="1.51"/><path d="M1917,366L1748,517L1941,545Z" fill="#487aad" stroke="#487aad" stroke-width="1.51"/><path d="M1703,891L1708,1139L1931,940Z" fill="#2551a2" stroke="#2551a2" stroke-width="1.51"/><path d="M1748,517L1728,713L1935,698Z" fill="#3572af" stroke="#3572af" stroke-width="1.51"/><path d="M1722,-67L1706,148L1940,131Z" fill="#8693ab" stroke="#8693ab" stroke-width="1.51"/><path d="M1748,517L1935,698L1941,545Z" fill="#3b72ad" stroke="#3b72ad" stroke-width="1.51"/><path d="M1931,940L1708,1139L1941,1086Z" fill="#26469c" stroke="#26469c" stroke-width="1.51"/><path d="M1726,342L1748,517L1917,366Z" fill="#5181ae" stroke="#5181ae" stroke-width="1.51"/><path d="M789,-264L955,-249L1178,-277Z" fill="#aad8c8" stroke="#aad8c8" stroke-width="1.51"/><path d="M1178,-277L1338,-213L1553,-232Z" fill="#9fbec2" stroke="#9fbec2" stroke-width="1.51"/><path d="M1581,936L1582,1084L1703,891Z" fill="#235da8" stroke="#235da8" stroke-width="1.51"/><path d="M1703,891L1582,1084L1708,1139Z" fill="#2554a3" stroke="#2554a3" stroke-width="1.51"/><path d="M1548,145L1706,148L1722,-67Z" fill="#869cae" stroke="#869cae" stroke-width="1.51"/><path d="M1531,-82L1548,145L1722,-67Z" fill="#8da3b0" stroke="#8da3b0" stroke-width="1.51"/><path d="M1706,148L1548,145L1726,342Z" fill="#7195b0" stroke="#7195b0" stroke-width="1.51"/><path d="M1581,748L1703,891L1728,713Z" fill="#266fb0" stroke="#266fb0" stroke-width="1.51"/><path d="M1567,520L1581,748L1728,713Z" fill="#2f7db4" stroke="#2f7db4" stroke-width="1.51"/><path d="M1567,520L1728,713L1748,517Z" fill="#3780b3" stroke="#3780b3" stroke-width="1.51"/><path d="M1726,342L1567,520L1748,517Z" fill="#4887b3" stroke="#4887b3" stroke-width="1.51"/><path d="M1708,1139L1524,1314L1754,1279Z" fill="#234295" stroke="#234295" stroke-width="1.51"/><path d="M1553,-232L1722,-67L1757,-261Z" fill="#9aa2b3" stroke="#9aa2b3" stroke-width="1.51"/><path d="M1553,-232L1531,-82L1722,-67Z" fill="#99a6b0" stroke="#99a6b0" stroke-width="1.51"/><path d="M1548,145L1505,355L1726,342Z" fill="#6396b2" stroke="#6396b2" stroke-width="1.51"/><path d="M1582,1084L1524,1314L1708,1139Z" fill="#254b9f" stroke="#254b9f" stroke-width="1.51"/><path d="M1505,355L1567,520L1726,342Z" fill="#4f8fb4" stroke="#4f8fb4" stroke-width="1.51"/><path d="M1581,748L1581,936L1703,891Z" fill="#246aae" stroke="#246aae" stroke-width="1.51"/><path d="M762,1290L531,1291L924,1322Z" fill="#4d749b" stroke="#4d749b" stroke-width="1.51"/><path d="M1531,-82L1336,-28L1548,145Z" fill="#8eadb4" stroke="#8eadb4" stroke-width="1.51"/><path d="M1567,520L1387,567L1581,748Z" fill="#318ab9" stroke="#318ab9" stroke-width="1.51"/><path d="M1387,567L1388,724L1581,748Z" fill="#2a89bb" stroke="#2a89bb" stroke-width="1.51"/><path d="M1581,748L1388,724L1581,936Z" fill="#2378b5" stroke="#2378b5" stroke-width="1.51"/><path d="M1388,724L1336,895L1581,936Z" fill="#2379b5" stroke="#2379b5" stroke-width="1.51"/><path d="M1336,895L1360,1140L1581,936Z" fill="#246aae" stroke="#246aae" stroke-width="1.51"/><path d="M1581,936L1360,1140L1582,1084Z" fill="#255ea8" stroke="#255ea8" stroke-width="1.51"/><path d="M1360,1140L1524,1314L1582,1084Z" fill="#2854a3" stroke="#2854a3" stroke-width="1.51"/><path d="M1335,308L1505,355L1548,145Z" fill="#66a2b7" stroke="#66a2b7" stroke-width="1.51"/><path d="M1336,-28L1317,120L1548,145Z" fill="#88b2b7" stroke="#88b2b7" stroke-width="1.51"/><path d="M1338,-213L1531,-82L1553,-232Z" fill="#9cb2b9" stroke="#9cb2b9" stroke-width="1.51"/><path d="M1505,355L1387,567L1567,520Z" fill="#4295b9" stroke="#4295b9" stroke-width="1.51"/><path d="M1317,120L1335,308L1548,145Z" fill="#75abb8" stroke="#75abb8" stroke-width="1.51"/><path d="M1360,1140L1330,1326L1524,1314Z" fill="#26549c" stroke="#26549c" stroke-width="1.51"/><path d="M1338,-213L1336,-28L1531,-82Z" fill="#9ab7b6" stroke="#9ab7b6" stroke-width="1.51"/><path d="M1335,308L1387,567L1505,355Z" fill="#4e9fbb" stroke="#4e9fbb" stroke-width="1.51"/><path d="M1336,895L1173,941L1360,1140Z" fill="#2475b3" stroke="#2475b3" stroke-width="1.51"/><path d="M1335,308L1153,315L1387,567Z" fill="#4faabf" stroke="#4faabf" stroke-width="1.51"/><path d="M1153,315L1117,577L1387,567Z" fill="#41aac2" stroke="#41aac2" stroke-width="1.51"/><path d="M1117,577L1144,715L1387,567Z" fill="#30a0c2" stroke="#30a0c2" stroke-width="1.51"/><path d="M1387,567L1144,715L1388,724Z" fill="#2996c0" stroke="#2996c0" stroke-width="1.51"/><path d="M1144,715L1336,895L1388,724Z" fill="#1f8ebf" stroke="#1f8ebf" stroke-width="1.51"/><path d="M1173,941L1136,1139L1360,1140Z" fill="#2c71b0" stroke="#2c71b0" stroke-width="1.51"/><path d="M1317,120L1150,143L1335,308Z" fill="#77b7bc" stroke="#77b7bc" stroke-width="1.51"/><path d="M1150,143L1153,315L1335,308Z" fill="#6bb6be" stroke="#6bb6be" stroke-width="1.51"/><path d="M1116,-60L1336,-28L1338,-213Z" fill="#9bc3ba" stroke="#9bc3ba" stroke-width="1.51"/><path d="M1136,1139L1330,1326L1360,1140Z" fill="#2c62aa" stroke="#2c62aa" stroke-width="1.51"/><path d="M1136,1139L1122,1335L1330,1326Z" fill="#2c62a1" stroke="#2c62a1" stroke-width="1.51"/><path d="M1150,143L1317,120L1336,-28Z" fill="#89bdbb" stroke="#89bdbb" stroke-width="1.51"/><path d="M1116,-60L1150,143L1336,-28Z" fill="#92c3bb" stroke="#92c3bb" stroke-width="1.51"/><path d="M1144,715L1173,941L1336,895Z" fill="#268abc" stroke="#268abc" stroke-width="1.51"/><path d="M1178,-277L1116,-60L1338,-213Z" fill="#a1c8c0" stroke="#a1c8c0" stroke-width="1.51"/><path d="M936,892L926,1135L1136,1139Z" fill="#397fb3" stroke="#397fb3" stroke-width="1.51"/><path d="M929,768L936,892L1144,715Z" fill="#319dc0" stroke="#319dc0" stroke-width="1.51"/><path d="M1116,-60L980,133L1150,143Z" fill="#8fc9bc" stroke="#8fc9bc" stroke-width="1.51"/><path d="M989,532L1117,577L1153,315Z" fill="#49b2c2" stroke="#49b2c2" stroke-width="1.51"/><path d="M977,336L989,532L1153,315Z" fill="#58b9c1" stroke="#58b9c1" stroke-width="1.51"/><path d="M1150,143L980,133L1153,315Z" fill="#7bc1bd" stroke="#7bc1bd" stroke-width="1.51"/><path d="M980,133L977,336L1153,315Z" fill="#6fc1be" stroke="#6fc1be" stroke-width="1.51"/><path d="M1144,715L936,892L1173,941Z" fill="#2e91bd" stroke="#2e91bd" stroke-width="1.51"/><path d="M936,892L1136,1139L1173,941Z" fill="#3181b5" stroke="#3181b5" stroke-width="1.51"/><path d="M955,-249L1116,-60L1178,-277Z" fill="#a5d0c2" stroke="#a5d0c2" stroke-width="1.51"/><path d="M979,-49L980,133L1116,-60Z" fill="#97cebc" stroke="#97cebc" stroke-width="1.51"/><path d="M955,-249L979,-49L1116,-60Z" fill="#a4d3bb" stroke="#a4d3bb" stroke-width="1.51"/><path d="M924,1322L1122,1335L1136,1139Z" fill="#346aa2" stroke="#346aa2" stroke-width="1.51"/><path d="M926,1135L924,1322L1136,1139Z" fill="#3d72ac" stroke="#3d72ac" stroke-width="1.51"/><path d="M1117,577L929,768L1144,715Z" fill="#33a3c2" stroke="#33a3c2" stroke-width="1.51"/><path d="M989,532L929,768L1117,577Z" fill="#3aabc3" stroke="#3aabc3" stroke-width="1.51"/><path d="M21,1299L-229,1360L203,1300Z" fill="#8c8895" stroke="#8c8895" stroke-width="1.51"/><path d="M802,1096L926,1135L936,892Z" fill="#4385b3" stroke="#4385b3" stroke-width="1.51"/><path d="M789,-264L765,-61L955,-249Z" fill="#b0dcc0" stroke="#b0dcc0" stroke-width="1.51"/><path d="M756,163L744,361L977,336Z" fill="#77c8bd" stroke="#77c8bd" stroke-width="1.51"/><path d="M955,-249L765,-61L979,-49Z" fill="#a9d9ba" stroke="#a9d9ba" stroke-width="1.51"/><path d="M756,163L977,336L980,133Z" fill="#80cabd" stroke="#80cabd" stroke-width="1.51"/><path d="M979,-49L765,-61L980,133Z" fill="#9cd4bc" stroke="#9cd4bc" stroke-width="1.51"/><path d="M765,-61L756,163L980,133Z" fill="#9bd5bb" stroke="#9bd5bb" stroke-width="1.51"/><path d="M779,759L929,768L989,532Z" fill="#41abc2" stroke="#41abc2" stroke-width="1.51"/><path d="M730,508L779,759L989,532Z" fill="#4eb5c2" stroke="#4eb5c2" stroke-width="1.51"/><path d="M977,336L744,361L989,532Z" fill="#5dbfc1" stroke="#5dbfc1" stroke-width="1.51"/><path d="M744,361L730,508L989,532Z" fill="#5ebfc1" stroke="#5ebfc1" stroke-width="1.51"/><path d="M762,1290L924,1322L926,1135Z" fill="#4473a4" stroke="#4473a4" stroke-width="1.51"/><path d="M739,900L802,1096L936,892Z" fill="#4990b6" stroke="#4990b6" stroke-width="1.51"/><path d="M802,1096L762,1290L926,1135Z" fill="#4c7aac" stroke="#4c7aac" stroke-width="1.51"/><path d="M929,768L779,759L936,892Z" fill="#40a1bf" stroke="#40a1bf" stroke-width="1.51"/><path d="M779,759L739,900L936,892Z" fill="#489dbb" stroke="#489dbb" stroke-width="1.51"/><path d="M588,154L756,163L765,-61Z" fill="#a3d9b9" stroke="#a3d9b9" stroke-width="1.51"/><path d="M730,508L590,549L779,759Z" fill="#5cbac0" stroke="#5cbac0" stroke-width="1.51"/><path d="M590,549L530,736L779,759Z" fill="#60b6bf" stroke="#60b6bf" stroke-width="1.51"/><path d="M605,-255L765,-61L789,-264Z" fill="#b8e0be" stroke="#b8e0be" stroke-width="1.51"/><path d="M739,900L549,951L802,1096Z" fill="#5691b3" stroke="#5691b3" stroke-width="1.51"/><path d="M549,951L539,1128L802,1096Z" fill="#5e8caf" stroke="#5e8caf" stroke-width="1.51"/><path d="M539,1128L762,1290L802,1096Z" fill="#587fab" stroke="#587fab" stroke-width="1.51"/><path d="M583,336L744,361L756,163Z" fill="#81cdbc" stroke="#81cdbc" stroke-width="1.51"/><path d="M588,154L583,336L756,163Z" fill="#92d3ba" stroke="#92d3ba" stroke-width="1.51"/><path d="M605,-255L561,-74L765,-61Z" fill="#bae2b7" stroke="#bae2b7" stroke-width="1.51"/><path d="M561,-74L588,154L765,-61Z" fill="#afdeb7" stroke="#afdeb7" stroke-width="1.51"/><path d="M539,1128L531,1291L762,1290Z" fill="#5f7da3" stroke="#5f7da3" stroke-width="1.51"/><path d="M530,736L739,900L779,759Z" fill="#57a8bd" stroke="#57a8bd" stroke-width="1.51"/><path d="M583,336L730,508L744,361Z" fill="#72c7bd" stroke="#72c7bd" stroke-width="1.51"/><path d="M583,336L590,549L730,508Z" fill="#6fc6be" stroke="#6fc6be" stroke-width="1.51"/><path d="M530,736L549,951L739,900Z" fill="#61a3b8" stroke="#61a3b8" stroke-width="1.51"/><path d="M11,-261L218,-207L373,-236Z" fill="#e7f6bc" stroke="#e7f6bc" stroke-width="1.51"/><path d="M345,-49L346,113L561,-74Z" fill="#c7e8b5" stroke="#c7e8b5" stroke-width="1.51"/><path d="M394,319L392,539L583,336Z" fill="#8ed1bb" stroke="#8ed1bb" stroke-width="1.51"/><path d="M561,-74L346,113L588,154Z" fill="#b9e3b6" stroke="#b9e3b6" stroke-width="1.51"/><path d="M394,319L583,336L588,154Z" fill="#97d5ba" stroke="#97d5ba" stroke-width="1.51"/><path d="M583,336L392,539L590,549Z" fill="#7ecabd" stroke="#7ecabd" stroke-width="1.51"/><path d="M392,539L530,736L590,549Z" fill="#76c1be" stroke="#76c1be" stroke-width="1.51"/><path d="M373,-236L561,-74L605,-255Z" fill="#cae9bb" stroke="#cae9bb" stroke-width="1.51"/><path d="M392,539L394,723L530,736Z" fill="#7cbfbd" stroke="#7cbfbd" stroke-width="1.51"/><path d="M530,736L382,938L549,951Z" fill="#71a7b7" stroke="#71a7b7" stroke-width="1.51"/><path d="M346,113L394,319L588,154Z" fill="#acdeb7" stroke="#acdeb7" stroke-width="1.51"/><path d="M394,723L382,938L530,736Z" fill="#79b2bb" stroke="#79b2bb" stroke-width="1.51"/><path d="M399,1157L531,1291L539,1128Z" fill="#7184a8" stroke="#7184a8" stroke-width="1.51"/><path d="M382,938L399,1157L539,1128Z" fill="#7792ad" stroke="#7792ad" stroke-width="1.51"/><path d="M382,938L539,1128L549,951Z" fill="#7097b0" stroke="#7097b0" stroke-width="1.51"/><path d="M373,-236L345,-49L561,-74Z" fill="#d0ecb4" stroke="#d0ecb4" stroke-width="1.51"/><path d="M399,1157L362,1305L531,1291Z" fill="#73829f" stroke="#73829f" stroke-width="1.51"/><path d="M218,-207L345,-49L373,-236Z" fill="#ddf2b7" stroke="#ddf2b7" stroke-width="1.51"/><path d="M173,756L220,969L382,938Z" fill="#8aadb4" stroke="#8aadb4" stroke-width="1.51"/><path d="M157,357L169,561L392,539Z" fill="#9bd4bb" stroke="#9bd4bb" stroke-width="1.51"/><path d="M173,756L382,938L394,723Z" fill="#87b6b9" stroke="#87b6b9" stroke-width="1.51"/><path d="M392,539L169,561L394,723Z" fill="#8ec9bc" stroke="#8ec9bc" stroke-width="1.51"/><path d="M169,561L173,756L394,723Z" fill="#90c4bc" stroke="#90c4bc" stroke-width="1.51"/><path d="M346,113L191,156L394,319Z" fill="#bae3b6" stroke="#bae3b6" stroke-width="1.51"/><path d="M191,156L157,357L394,319Z" fill="#b1dfb7" stroke="#b1dfb7" stroke-width="1.51"/><path d="M157,357L392,539L394,319Z" fill="#9ed7ba" stroke="#9ed7ba" stroke-width="1.51"/><path d="M203,1300L362,1305L399,1157Z" fill="#7f869e" stroke="#7f869e" stroke-width="1.51"/><path d="M154,1135L203,1300L399,1157Z" fill="#888ba6" stroke="#888ba6" stroke-width="1.51"/><path d="M382,938L220,969L399,1157Z" fill="#839bae" stroke="#839bae" stroke-width="1.51"/><path d="M220,969L154,1135L399,1157Z" fill="#8896ab" stroke="#8896ab" stroke-width="1.51"/><path d="M345,-49L164,-16L346,113Z" fill="#d1edb4" stroke="#d1edb4" stroke-width="1.51"/><path d="M218,-207L164,-16L345,-49Z" fill="#ddf1b2" stroke="#ddf1b2" stroke-width="1.51"/><path d="M164,-16L191,156L346,113Z" fill="#ceebb4" stroke="#ceebb4" stroke-width="1.51"/><path d="M11,-261L6,-8L164,-16Z" fill="#e8f6b2" stroke="#e8f6b2" stroke-width="1.51"/><path d="M157,357L15,527L169,561Z" fill="#a4d7bb" stroke="#a4d7bb" stroke-width="1.51"/><path d="M1,748L-52,921L173,756Z" fill="#9abcb8" stroke="#9abcb8" stroke-width="1.51"/><path d="M-7,156L157,357L191,156Z" fill="#c2e6b5" stroke="#c2e6b5" stroke-width="1.51"/><path d="M154,1135L21,1299L203,1300Z" fill="#8c8a9f" stroke="#8c8a9f" stroke-width="1.51"/><path d="M11,-261L164,-16L218,-207Z" fill="#e8f6b5" stroke="#e8f6b5" stroke-width="1.51"/><path d="M173,756L-52,921L220,969Z" fill="#94b1b5" stroke="#94b1b5" stroke-width="1.51"/><path d="M-52,921L154,1135L220,969Z" fill="#92a1ae" stroke="#92a1ae" stroke-width="1.51"/><path d="M6,-8L-7,156L164,-16Z" fill="#ddf1b2" stroke="#ddf1b2" stroke-width="1.51"/><path d="M169,561L1,748L173,756Z" fill="#99c7bb" stroke="#99c7bb" stroke-width="1.51"/><path d="M164,-16L-7,156L191,156Z" fill="#d4eeb3" stroke="#d4eeb3" stroke-width="1.51"/><path d="M-52,921L-52,1146L154,1135Z" fill="#989dac" stroke="#989dac" stroke-width="1.51"/><path d="M15,527L1,748L169,561Z" fill="#9fcfbc" stroke="#9fcfbc" stroke-width="1.51"/><path d="M-33,362L15,527L157,357Z" fill="#afdcb9" stroke="#afdcb9" stroke-width="1.51"/><path d="M-7,156L-33,362L157,357Z" fill="#bde4b6" stroke="#bde4b6" stroke-width="1.51"/><path d="M-52,1146L21,1299L154,1135Z" fill="#9590a6" stroke="#9590a6" stroke-width="1.51"/><path d="M-200,133L-33,362L-7,156Z" fill="#cceaba" stroke="#cceaba" stroke-width="1.51"/><path d="M-170,761L-52,921L1,748Z" fill="#9ebdbc" stroke="#9ebdbc" stroke-width="1.51"/><path d="M-183,522L-170,761L1,748Z" fill="#a3ccc3" stroke="#a3ccc3" stroke-width="1.51"/><path d="M-200,133L-7,156L6,-8Z" fill="#ddf2b8" stroke="#ddf2b8" stroke-width="1.51"/><path d="M-206,-13L-200,133L6,-8Z" fill="#e4f4bb" stroke="#e4f4bb" stroke-width="1.51"/><path d="M-206,-13L6,-8L11,-261Z" fill="#edf8b5" stroke="#edf8b5" stroke-width="1.51"/><path d="M-233,-280L-206,-13L11,-261Z" fill="#f5fbc1" stroke="#f5fbc1" stroke-width="1.51"/><path d="M-183,522L1,748L15,527Z" fill="#a5d2bf" stroke="#a5d2bf" stroke-width="1.51"/><path d="M-33,362L-183,522L15,527Z" fill="#aedbbf" stroke="#aedbbf" stroke-width="1.51"/><path d="M-52,1146L-229,1360L21,1299Z" fill="#938ca1" stroke="#938ca1" stroke-width="1.51"/><path d="M-200,133L-184,379L-33,362Z" fill="#c2e6bf" stroke="#c2e6bf" stroke-width="1.51"/><path d="M-203,1141L-229,1360L-52,1146Z" fill="#9990ae" stroke="#9990ae" stroke-width="1.51"/><path d="M-203,1141L-52,1146L-52,921Z" fill="#9b9eb2" stroke="#9b9eb2" stroke-width="1.51"/><path d="M-184,379L-183,522L-33,362Z" fill="#b4dec1" stroke="#b4dec1" stroke-width="1.51"/><path d="M-238,919L-203,1141L-52,921Z" fill="#9ca7b9" stroke="#9ca7b9" stroke-width="1.51"/><path d="M-170,761L-238,919L-52,921Z" fill="#9eb7bf" stroke="#9eb7bf" stroke-width="1.51"/><path d="M-183,522L-238,919L-170,761Z" fill="#a2c7c7" stroke="#a2c7c7" stroke-width="1.51"/><path d="M-184,379L-238,919L-183,522Z" fill="#a8d3c8" stroke="#a8d3c8" stroke-width="1.51"/><path d="M-200,133L-238,919L-184,379Z" fill="#b1ddc7" stroke="#b1ddc7" stroke-width="1.51"/><path d="M-206,-13L-233,-280L-200,133Z" fill="#eef9bf" stroke="#eef9bf" stroke-width="1.51"/><path d="M-233,-280L-238,919L-200,133Z" fill="#c9e9c3" stroke="#c9e9c3" stroke-width="1.51"/><path d="M-238,919L-229,1360L-203,1141Z" fill="#9c98b6" stroke="#9c98b6" stroke-width="1.51"/></svg>